name rise38.3101peak57.3503fall81.6963.mot
datacolumns 19
datarows 23
range 23.58824500000000 23.62492500000000
endheader
time	ground_force1_vx	ground_force1_vy	ground_force1_vz	ground_force1_px	ground_force1_py	ground_force1_pz	ground_force2_vx	ground_force2_vy	ground_force2_vz	ground_force2_px	ground_force2_py	ground_force2_pz	ground_torque1_x	ground_torque1_y	ground_torque1_z	ground_torque2_x	ground_torque2_y	ground_torque2_z	
23.58824500000000	-8.72871400000000	40.18703300000000	-14.67281000000000	0.30853000000000	0.00000000000000	0.06723000000000	-61.68949000000000	786.41169900000000	-45.31268100000000	0.12971000000000	0.00000000000000	-0.07508600000000	0.00000000000000	-9.84700800000000	0.00000000000000	0.00000000000000	-20.24929600000000	0.00000000000000	
23.58993300000000	-9.46296000000000	47.24761800000000	-16.52024000000000	0.31480600000000	0.00000000000000	0.06867000000000	-62.04712000000000	783.49930300000005	-44.70322600000000	0.12901200000000	0.00000000000000	-0.07495600000000	0.00000000000000	-11.22881100000000	0.00000000000000	0.00000000000000	-20.11092600000000	0.00000000000000	
23.59158400000000	-10.00460500000000	54.44015800000000	-18.20896300000000	0.32060200000000	0.00000000000000	0.06997500000000	-62.41101300000000	780.49747200000002	-44.07395500000000	0.12832200000000	0.00000000000000	-0.07481900000000	0.00000000000000	-12.53078800000000	0.00000000000000	0.00000000000000	-19.97153400000000	0.00000000000000	
23.59324800000000	-10.33059600000000	61.67715200000000	-19.70128300000000	0.32598400000000	0.00000000000000	0.07116600000000	-62.78138800000000	777.40448200000003	-43.42530800000000	0.12764000000000	0.00000000000000	-0.07467700000000	0.00000000000000	-13.72425500000000	0.00000000000000	0.00000000000000	-19.83127600000000	0.00000000000000	
23.59492700000000	-10.42850800000000	68.89216200000000	-20.97251600000000	0.33100900000000	0.00000000000000	0.07226000000000	-63.15840100000000	774.21845099999996	-42.75774700000000	0.12696600000000	0.00000000000000	-0.07453000000000	0.00000000000000	-14.78886700000000	0.00000000000000	0.00000000000000	-19.69029500000000	0.00000000000000	
23.59658500000000	-10.29624900000000	76.04198900000000	-22.01114400000000	0.33572000000000	0.00000000000000	0.07327200000000	-63.54214800000000	770.93734300000006	-42.07175700000000	0.12630100000000	0.00000000000000	-0.07437700000000	0.00000000000000	-15.71302700000000	0.00000000000000	0.00000000000000	-19.54872900000000	0.00000000000000	
23.59825200000000	-9.94096900000000	83.10656000000000	-22.81786300000000	0.34015200000000	0.00000000000000	0.07421200000000	-63.93265300000000	767.55896900000005	-41.36784500000000	0.12564600000000	0.00000000000000	-0.07421800000000	0.00000000000000	-16.49353000000000	0.00000000000000	0.00000000000000	-19.40670300000000	0.00000000000000	
23.59993400000000	-9.37739300000000	90.08692100000000	-23.40379600000000	0.34433700000000	0.00000000000000	0.07509000000000	-64.32987000000000	764.08099600000003	-40.64653900000000	0.12500000000000	0.00000000000000	-0.07405400000000	0.00000000000000	-17.13456500000000	0.00000000000000	0.00000000000000	-19.26433400000000	0.00000000000000	
23.60158100000000	-8.62582300000000	97.00183100000000	-23.78815200000000	0.34829800000000	0.00000000000000	0.07591300000000	-64.73367500000001	760.50094700000000	-39.90839300000000	0.12436400000000	0.00000000000000	-0.07388400000000	0.00000000000000	-17.64627700000000	0.00000000000000	0.00000000000000	-19.12172500000000	0.00000000000000	
23.60324500000000	-7.71002000000000	103.88347800000000	-23.99562700000000	0.35205800000000	0.00000000000000	0.07668800000000	-65.14386600000000	756.81620899999996	-39.15398000000000	0.12373800000000	0.00000000000000	-0.07371000000000	0.00000000000000	-18.04309000000000	0.00000000000000	0.00000000000000	-18.97896900000000	0.00000000000000	
23.60492300000000	-6.65516800000000	110.77282700000001	-24.05380700000000	0.35563300000000	0.00000000000000	0.07742000000000	-65.56015499999999	753.02404400000000	-38.38389500000000	0.12312400000000	0.00000000000000	-0.07353000000000	0.00000000000000	-18.34195200000000	0.00000000000000	0.00000000000000	-18.83614400000000	0.00000000000000	
23.60658400000000	-5.48606800000000	117.71504100000000	-23.99077800000000	0.35903900000000	0.00000000000000	0.07811400000000	-65.98217000000000	749.12159399999996	-37.59875800000000	0.12252000000000	0.00000000000000	-0.07334500000000	0.00000000000000	-18.56068200000000	0.00000000000000	0.00000000000000	-18.69331800000000	0.00000000000000	
23.60824600000000	-4.22567000000000	124.75532699999999	-23.83310300000000	0.36228900000000	0.00000000000000	0.07877400000000	-66.40944700000000	745.10589400000003	-36.79920700000000	0.12192900000000	0.00000000000000	-0.07315600000000	0.00000000000000	-18.71652000000000	0.00000000000000	0.00000000000000	-18.55054200000000	0.00000000000000	
23.60992300000000	-2.89399100000000	131.93546400000000	-23.60426800000000	0.36539400000000	0.00000000000000	0.07940300000000	-66.84143000000000	740.97388100000001	-35.98590500000000	0.12134900000000	0.00000000000000	-0.07296100000000	0.00000000000000	-18.82496600000000	0.00000000000000	0.00000000000000	-18.40785500000000	0.00000000000000	
23.61158500000000	-1.50744900000000	139.29115400000001	-23.32361500000000	0.36836400000000	0.00000000000000	0.08000400000000	-67.27746999999999	736.72240899999997	-35.15953500000000	0.12078200000000	0.00000000000000	-0.07276200000000	0.00000000000000	-18.89895800000000	0.00000000000000	0.00000000000000	-18.26528000000000	0.00000000000000	
23.61325300000000	-0.07857500000000	146.85025300000001	-23.00578400000000	0.37120800000000	0.00000000000000	0.08058000000000	-67.71682000000000	732.34826199999998	-34.32080200000000	0.12022700000000	0.00000000000000	-0.07255900000000	0.00000000000000	-18.94837600000000	0.00000000000000	0.00000000000000	-18.12282700000000	0.00000000000000	
23.61492800000000	1.38392800000000	154.63186800000000	-22.66059600000000	0.37393300000000	0.00000000000000	0.08113200000000	-68.15863700000000	727.84817099999998	-33.47043100000000	0.11968600000000	0.00000000000000	-0.07235000000000	0.00000000000000	-18.97987300000000	0.00000000000000	0.00000000000000	-17.98048800000000	0.00000000000000	
23.61658000000000	2.87486200000000	162.64621600000001	-22.29331600000000	0.37654600000000	0.00000000000000	0.08166300000000	-68.60198099999999	723.21883100000002	-32.60916700000000	0.11915800000000	0.00000000000000	-0.07213800000000	0.00000000000000	-18.99697600000000	0.00000000000000	0.00000000000000	-17.83824100000000	0.00000000000000	
23.61824900000000	4.39200300000000	170.89512900000000	-21.90519800000000	0.37905300000000	0.00000000000000	0.08217500000000	-69.04581200000000	718.45691599999998	-31.73777800000000	0.11864400000000	0.00000000000000	-0.07192100000000	0.00000000000000	-19.00040600000000	0.00000000000000	0.00000000000000	-17.69605000000000	0.00000000000000	
23.61993400000000	5.93544800000000	179.37303499999999	-21.49423800000000	0.38145900000000	0.00000000000000	0.08266800000000	-69.48899400000001	713.55910400000005	-30.85704900000000	0.11814400000000	0.00000000000000	-0.07170100000000	0.00000000000000	-18.98854700000000	0.00000000000000	0.00000000000000	-17.55385900000000	0.00000000000000	
23.62158300000000	7.50692100000000	188.06826599999999	-21.05601600000000	0.38376900000000	0.00000000000000	0.08314500000000	-69.93029400000000	708.52209600000003	-29.96778300000000	0.11765900000000	0.00000000000000	-0.07147600000000	0.00000000000000	-18.95801900000000	0.00000000000000	0.00000000000000	-17.41160200000000	0.00000000000000	
23.62326800000000	9.10907300000000	196.96452800000000	-20.58456900000000	0.38598700000000	0.00000000000000	0.08360600000000	-70.36838600000000	703.34263399999998	-29.07080400000000	0.11718900000000	0.00000000000000	-0.07124700000000	0.00000000000000	-18.90426600000000	0.00000000000000	0.00000000000000	-17.26919400000000	0.00000000000000	
23.62492500000000	10.74485600000000	206.04239799999999	-20.07321200000000	0.38811700000000	0.00000000000000	0.08405200000000	-70.80184900000000	698.01752699999997	-28.16695000000000	0.11673400000000	0.00000000000000	-0.07101500000000	0.00000000000000	-18.82213500000000	0.00000000000000	0.00000000000000	-17.12653600000000	0.00000000000000	
